<?xml version="1.0" encoding="UTF-8" standalone="no"?>
<svg
   xmlns:dc="http://purl.org/dc/elements/1.1/"
   xmlns:cc="http://creativecommons.org/ns#"
   xmlns:rdf="http://www.w3.org/1999/02/22-rdf-syntax-ns#"
   xmlns:svg="http://www.w3.org/2000/svg"
   xmlns="http://www.w3.org/2000/svg"
   xmlns:sodipodi="http://sodipodi.sourceforge.net/DTD/sodipodi-0.dtd"
   xmlns:inkscape="http://www.inkscape.org/namespaces/inkscape"
   version="1.1"
   x="0px"
   y="0px"
   viewBox="0 0 54 54.000031"
   id="svg10"
   sodipodi:docname="noun_Plus_2186327.svg"
   inkscape:version="0.92.2 5c3e80d, 2017-08-06"
   width="54"
   height="54.000031">
  <metadata
     id="metadata16">
    <rdf:RDF>
      <cc:Work
         rdf:about="">
        <dc:format>image/svg+xml</dc:format>
        <dc:type
           rdf:resource="http://purl.org/dc/dcmitype/StillImage" />
        <dc:title></dc:title>
      </cc:Work>
    </rdf:RDF>
  </metadata>
  <defs
     id="defs14" />
  <sodipodi:namedview
     pagecolor="#ffffff"
     bordercolor="#666666"
     borderopacity="1"
     objecttolerance="10"
     gridtolerance="10"
     guidetolerance="10"
     inkscape:pageopacity="0"
     inkscape:pageshadow="2"
     inkscape:window-width="1263"
     inkscape:window-height="794"
     id="namedview12"
     showgrid="false"
     inkscape:zoom="3.776"
     inkscape:cx="27"
     inkscape:cy="14.50002"
     inkscape:window-x="0"
     inkscape:window-y="0"
     inkscape:window-maximized="0"
     inkscape:current-layer="svg10" />
  <g
     transform="translate(-23,-975.36217)"
     id="g4">
    <path
       d="m 50,975.36217 c -1.6568,0 -3,1.34316 -3,3 v 21 H 26 c -1.6568,0 -3,1.34313 -3,3.00003 0,1.6568 1.3432,3 3,3 h 21 v 21 c 0,1.6568 1.3432,3 3,3 1.6569,0 3,-1.3432 3,-3 v -21 h 21 c 1.6568,0 3,-1.3432 3,-3 0,-1.6569 -1.3432,-3.00003 -3,-3.00003 H 53 v -21 c 0,-1.65684 -1.3431,-3 -3,-3 z"
       style="color:#000000;text-indent:0;text-transform:none;direction:ltr;baseline-shift:baseline;display:inline;overflow:visible;visibility:visible;fill:#000000;fill-opacity:1;stroke:none;enable-background:accumulate"
       marker="none"
       visibility="visible"
       display="inline"
       overflow="visible"
       id="path2"
       inkscape:connector-curvature="0" />
  </g>
</svg>
